<?xml version="1.0" standalone="no"?><!DOCTYPE svg PUBLIC "-//W3C//DTD SVG 1.1//EN"
        "http://www.w3.org/Graphics/SVG/1.1/DTD/svg11.dtd">
<svg t="1592457720062" class="icon" viewBox="0 0 1024 1024" version="1.1" xmlns="http://www.w3.org/2000/svg" p-id="6474"
     width="64" height="64" xmlns:xlink="http://www.w3.org/1999/xlink">
    <defs>
        <style type="text/css"></style>
    </defs>
    <path d="M744 768.16c70.72 0 128 57.12 128 128V1008c0 8.96-7.2 16-16 16h-416l240-128-32-48 80-80 16 0.16z"
          fill="#434A54" p-id="6475"></path>
    <path d="M744 768.16l-16-0.16-6.976 6.976A127.808 127.808 0 0 1 808 896.16V1008c0 8.96-7.2 16-16 16h64c8.8 0 16-7.04 16-16v-111.84c0-70.88-57.28-128-128-128z"
          fill="#353B44" p-id="6476"></path>
    <path d="M728 768l-80 80 32 48-240 128 45.6-60.816h0.16l34.24-45.904 112-149.12V704z" fill="#656D78"
          p-id="6477"></path>
    <path d="M520 917.28l-34.24 45.904h-0.16L360 896l32-48-80-80 96-64v64.16z" fill="#656D78" p-id="6478"></path>
    <path d="M296 768h16l80 80-32 48 125.6 67.184L440 1024h-256c-8.8 0-16-7.04-16-16v-111.84a128 128 0 0 1 128-128.16z"
          fill="#434A54" p-id="6479"></path>
    <path d="M408 768.16s48 31.84 112 31.84 112-31.84 112-31.84l-112 149.12-112-149.12z" fill="#ED5565"
          p-id="6480"></path>
    <path d="M632 704v64.16s-48 31.84-112 31.84-112-31.84-112-31.84v-91.84c33.44 17.6 71.52 27.68 112 27.68s78.56-10.096 112-27.68V704z"
          fill="#EAC6BB" p-id="6481"></path>
    <path d="M760 368v96c0 92.16-51.84 172.16-128 212.32-33.44 17.6-71.52 27.68-112 27.68s-78.56-10.096-112-27.68c-76.16-40.16-128-120.16-128-212.32V272h384c0 53.12 42.88 96 96 96z"
          fill="#EAC6BB" p-id="6482"></path>
    <path d="M696 343.488V464a239.744 239.744 0 0 1-208 237.824 239.952 239.952 0 0 0 144-25.488c76.16-40.16 128-120.16 128-212.32v-96a95.68 95.68 0 0 1-64-24.528z"
          fill="#D3B1A9" p-id="6483"></path>
    <path d="M760 224v144c-53.12 0-96-42.88-96-96h-384c-70.72 0-128-57.12-128-128V48h432c97.12 0 176 78.88 176 176z"
          fill="#656D78" p-id="6484"></path>
    <path d="M584 48h-64c97.12 0 176 78.88 176 176v119.488a95.584 95.584 0 0 0 64 24.512v-144c0-97.12-78.88-176-176-176z"
          fill="#434A54" p-id="6485"></path>
</svg>